name GIL11_fast2.mot
datacolumns 153
datarows 4
range 0.09999991 0.12499991
endheader

                time	           pelvis_tx	           pelvis_ty	           pelvis_tz	         pelvis_tilt	         pelvis_list	     pelvis_rotation	       hip_flexion_r	     hip_adduction_r	      hip_rotation_r	        knee_angle_r	       ankle_angle_r	    subtalar_angle_r	         mtp_angle_r	       hip_flexion_l	     hip_adduction_l	      hip_rotation_l	        knee_angle_l	       ankle_angle_l	    subtalar_angle_l	         mtp_angle_l	    lumbar_extension	      lumbar_bending	     lumbar_rotation	     ground_force_vx	     ground_force_vy	     ground_force_vz	     ground_force_px	     ground_force_py	     ground_force_pz	     ground_force_vx	     ground_force_vy	     ground_force_vz	     ground_force_px	     ground_force_py	     ground_force_pz	     ground_torque_x	     ground_torque_y	     ground_torque_z	     ground_torque_x	     ground_torque_y	     ground_torque_z	    ground_marker_px	    ground_marker_py	    ground_marker_pz	    ground_marker_px	    ground_marker_py	    ground_marker_pz	    ground_marker_px	    ground_marker_py	    ground_marker_pz	    ground_marker_px	    ground_marker_py	    ground_marker_pz	    ground_marker_px	    ground_marker_py	    ground_marker_pz	    ground_marker_px	    ground_marker_py	    ground_marker_pz	    ground_marker_px	    ground_marker_py	    ground_marker_pz	    ground_marker_px	    ground_marker_py	    ground_marker_pz	    ground_marker_px	    ground_marker_py	    ground_marker_pz	    ground_marker_px	    ground_marker_py	    ground_marker_pz	    ground_marker_px	    ground_marker_py	    ground_marker_pz	    ground_marker_px	    ground_marker_py	    ground_marker_pz	    ground_marker_px	    ground_marker_py	    ground_marker_pz	    ground_marker_px	    ground_marker_py	    ground_marker_pz	    ground_marker_px	    ground_marker_py	    ground_marker_pz	    ground_marker_px	    ground_marker_py	    ground_marker_pz	    ground_marker_px	    ground_marker_py	    ground_marker_pz	    ground_marker_px	    ground_marker_py	    ground_marker_pz	    ground_marker_px	    ground_marker_py	    ground_marker_pz	    ground_marker_px	    ground_marker_py	    ground_marker_pz	    ground_marker_px	    ground_marker_py	    ground_marker_pz	    ground_marker_px	    ground_marker_py	    ground_marker_pz	    ground_marker_px	    ground_marker_py	    ground_marker_pz	    ground_marker_px	    ground_marker_py	    ground_marker_pz	    ground_marker_px	    ground_marker_py	    ground_marker_pz	    ground_marker_px	    ground_marker_py	    ground_marker_pz	    ground_marker_px	    ground_marker_py	    ground_marker_pz	    ground_marker_px	    ground_marker_py	    ground_marker_pz	    ground_marker_px	    ground_marker_py	    ground_marker_pz	    ground_marker_px	    ground_marker_py	    ground_marker_pz	    ground_marker_px	    ground_marker_py	    ground_marker_pz	    ground_marker_px	    ground_marker_py	    ground_marker_pz	    ground_marker_px	    ground_marker_py	    ground_marker_pz	    ground_marker_px	    ground_marker_py	    ground_marker_pz	    ground_marker_px	    ground_marker_py	    ground_marker_pz	    ground_marker_px	    ground_marker_py	    ground_marker_pz	    ground_marker_px	    ground_marker_py	    ground_marker_pz	
          0.09999991	          1.28985834	          0.84276110	         -0.26895049	         -4.50766754	         -6.50042915	          2.88572502	         31.24995041	          4.61285067	          4.13555241	        -26.59729004	          2.08462167	          0.00000000	          0.00000000	         -9.73887062	        -13.85845184	          9.90983963	        -36.12664413	        -30.93228912	          0.00000000	          0.00000000	         -1.40307832	          3.77975035	         -6.48675346	       -150.98316995	        808.17071010	        -41.36975063	          1.38330139	          0.00000000	         -0.19161023	          0.00000000	          0.00000000	          0.00000000	          1.87926685	          0.00000000	         -0.32922482	          0.00000000	          0.77956128	          0.00000000	          0.00000000	          0.00000000	          0.00000000	          1.22242212	          0.79580426	         -0.24769765	          1.20820212	          0.77717590	         -0.17950349	          1.19099617	          0.76277250	         -0.32996714	          1.37576079	          0.43680692	         -0.19156387	          1.09240222	          0.39465126	         -0.37984324	          1.37063622	          0.06466244	         -0.20164251	          0.81014121	          0.17092954	         -0.39792040	          1.28985834	          0.84276110	         -0.26895049	          1.29918337	          0.85367578	         -0.15385427	          1.28053331	          0.83184642	         -0.38404670	          1.09807825	          0.90793252	         -0.21856041	          1.09211147	          0.89857465	         -0.27268043	          1.38620865	          0.43993175	         -0.13459830	          1.10093260	          0.40010425	         -0.43695277	          1.35848820	          0.43372512	         -0.24570775	          1.13143098	          0.38596952	         -0.31434336	          1.36280990	          0.06370816	         -0.16242723	          0.80113471	          0.18522243	         -0.43417773	          1.37988281	          0.07086799	         -0.23588175	          0.81720066	          0.17293011	         -0.37347621	          1.17475772	          1.34353638	         -0.27275318	          1.29864013	          1.28428113	         -0.21739806	          1.30273378	          1.28004229	         -0.32332322	          1.29707468	          1.27925277	         -0.27013928	          1.33814871	          1.21001565	         -0.26932085	          1.45525420	          0.62040287	         -0.22089438	          1.17558110	          0.52848631	         -0.50561249	          1.39283633	          0.64033598	         -0.14732878	          1.12547791	          0.57802051	         -0.44025666	          1.41516376	          0.55428576	         -0.15548131	          1.12042093	          0.48973459	         -0.43809247	          1.36734962	          0.13733363	         -0.09128904	          0.96652114	          0.17558688	         -0.39300588	          1.36623549	          0.14660244	         -0.13351968	          0.93772471	          0.20668760	         -0.40080550	          1.47030103	          0.04050097	         -0.17048256	          0.80903631	          0.06330796	         -0.39407146	
          0.10833324	          1.30398583	          0.84392941	         -0.26654884	         -4.52555275	         -6.71560049	          2.40374947	         30.57182312	          5.20014381	          2.78287578	        -27.20091629	          3.14072013	          0.00000000	          0.00000000	         -8.21576500	        -14.33253765	         10.27731609	        -39.07462311	        -30.63484955	          0.00000000	          0.00000000	         -1.69557774	          3.97073388	         -5.84388351	       -139.74604849	        800.73832835	        -45.92404713	          1.38631519	          0.00000000	         -0.19050327	          0.00000000	          0.00000000	          0.00000000	          1.87946997	          0.00000000	         -0.32992825	          0.00000000	          1.10032483	          0.00000000	          0.00000000	          0.00000000	          0.00000000	          1.23566771	          0.79641593	         -0.24733609	          1.22175193	          0.77882445	         -0.17728037	          1.20560074	          0.76351094	         -0.32777104	          1.38500667	          0.43681616	         -0.18950203	          1.11695945	          0.39229423	         -0.37986580	          1.37186134	          0.06452711	         -0.20143189	          0.83016312	          0.17653620	         -0.39759704	          1.30398583	          0.84392941	         -0.26654884	          1.31249642	          0.85552704	         -0.15156408	          1.29547524	          0.83233178	         -0.38153362	          1.11166620	          0.90921181	         -0.21901000	          1.10588574	          0.89951211	         -0.27314991	          1.39407051	          0.43909717	         -0.13226007	          1.12605774	          0.39811870	         -0.43685085	          1.36783457	          0.43498850	         -0.24575156	          1.15956247	          0.38307342	         -0.31527856	          1.36329341	          0.06357796	         -0.16237180	          0.82207316	          0.19030374	         -0.43427140	          1.38082159	          0.07108130	         -0.23557584	          0.83609354	          0.17882106	         -0.37319356	          1.18936849	          1.34543383	         -0.27151805	          1.31272042	          1.28574133	         -0.21688376	          1.31643319	          1.28128254	         -0.32274869	          1.31100070	          1.28073025	         -0.26934126	          1.35162497	          1.21115279	         -0.26876429	          1.46877575	          0.61887085	         -0.21470062	          1.19821393	          0.52824199	         -0.50450957	          1.40479136	          0.63865179	         -0.14245225	          1.14541137	          0.57620168	         -0.43940425	          1.42488194	          0.55229807	         -0.15147014	          1.14463079	          0.48707488	         -0.43812326	          1.36812639	          0.13654722	         -0.09073794	          0.98661268	          0.17695525	         -0.39040211	          1.36681497	          0.14646956	         -0.13288110	          0.95825928	          0.20876218	         -0.39808795	          1.47044992	          0.04012457	         -0.17003386	          0.82608235	          0.06776051	         -0.39497957	
          0.11666658	          1.31786656	          0.84537351	         -0.26426178	         -4.52056885	         -6.85054493	          1.94137394	         29.68189240	          5.68437910	          1.64139509	        -27.41995621	          3.97548199	          0.00000000	          0.00000000	         -6.65316725	        -14.69222927	         10.77334881	        -41.97361755	        -29.35790634	          0.00000000	          0.00000000	         -1.94953465	          4.10469675	         -5.31003475	       -126.30200283	        787.92906030	        -50.67106227	          1.39027209	          0.00000000	         -0.18910449	          0.00000000	          0.00000000	          0.00000000	          1.87977832	          0.00000000	         -0.33050720	          0.00000000	          1.53681689	          0.00000000	          0.00000000	          0.00000000	          0.00000000	          1.24883413	          0.79733217	         -0.24686061	          1.23507535	          0.78058714	         -0.17527726	          1.21999586	          0.76457447	         -0.32580638	          1.39291656	          0.43665096	         -0.18735370	          1.14182401	          0.39037594	         -0.37978873	          1.37304270	          0.06447955	         -0.20114668	          0.85102898	          0.18206953	         -0.39645821	          1.31786656	          0.84537351	         -0.26426178	          1.32556236	          0.85750741	         -0.14921574	          1.31017077	          0.83323961	         -0.37930781	          1.12499368	          0.91060084	         -0.21949995	          1.11941600	          0.90064728	         -0.27364784	          1.40068901	          0.43820053	         -0.12989773	          1.15155482	          0.39654359	         -0.43663299	          1.37660670	          0.43554500	         -0.24517457	          1.18332839	          0.38222563	         -0.31382477	          1.36365438	          0.06354028	         -0.16227537	          0.84381145	          0.19511548	         -0.43357572	          1.38088930	          0.07176014	         -0.23543465	          0.85696667	          0.18430449	         -0.37216428	          1.20291030	          1.34796929	         -0.26999155	          1.32671249	          1.28749752	         -0.21626121	          1.33023643	          1.28287363	         -0.32186693	          1.32483339	          1.28249013	         -0.26870146	          1.36521387	          1.21267009	         -0.26795805	          1.48136628	          0.61675495	         -0.20886241	          1.22116554	          0.52844268	         -0.50328577	          1.41528547	          0.63669378	         -0.13811900	          1.16565979	          0.57433951	         -0.43903297	          1.43323612	          0.55039966	         -0.14739688	          1.16762376	          0.48528287	         -0.43738648	          1.36835277	          0.13591509	         -0.09014439	          1.00762486	          0.17862152	         -0.38691738	          1.36640453	          0.14639068	         -0.13218585	          0.97953272	          0.21084957	         -0.39514977	          1.47049284	          0.03982143	         -0.16958541	          0.84577179	          0.07210871	         -0.39584246	
          0.12499991	          1.33151424	          0.84711713	         -0.26209971	         -4.49051476	         -6.89326096	          1.50710464	         28.60636902	          6.06260586	          0.77528465	        -27.31834030	          4.62227440	          0.00000000	          0.00000000	         -5.07312346	        -14.92648697	         11.38795662	        -44.73563766	        -27.43704033	          0.00000000	          0.00000000	         -2.12214971	          4.33735180	         -4.54257298	       -112.96069235	        768.71131305	        -54.46358117	          1.39496436	          0.00000000	         -0.18753909	          0.00000000	          0.00000000	          0.00000000	          1.88019312	          0.00000000	         -0.33093622	          0.00000000	          2.05459839	          0.00000000	          0.00000000	          0.00000000	          0.00000000	          1.26183200	          0.79852509	         -0.24642204	          1.24819386	          0.78246516	         -0.17351222	          1.23419189	          0.76600212	         -0.32409683	          1.39967978	          0.43638334	         -0.18526898	          1.16686475	          0.38899183	         -0.37964746	          1.37414229	          0.06449924	         -0.20082682	          0.87281150	          0.18727642	         -0.39462999	          1.33151424	          0.84711713	         -0.26209971	          1.33839965	          0.85961336	         -0.14681935	          1.32462883	          0.83462089	         -0.37738007	          1.13809240	          0.91212368	         -0.21996793	          1.13276112	          0.90200716	         -0.27409449	          1.40632010	          0.43733275	         -0.12765816	          1.17728996	          0.39548233	         -0.43633246	          1.38658059	          0.43394083	         -0.24235746	          1.19941342	          0.38132876	         -0.31305873	          1.36394763	          0.06358164	         -0.16215870	          0.86634451	          0.19949192	         -0.43216607	          1.38100469	          0.07266715	         -0.23524188	          0.88020211	          0.18854642	         -0.37046966	          1.21595454	          1.35077131	         -0.26853466	          1.34097457	          1.28942156	         -0.21572769	          1.34390104	          1.28505421	         -0.32124409	          1.33856606	          1.28455782	         -0.26820341	          1.37904942	          1.21465290	         -0.26776028	          1.49294400	          0.61424595	         -0.20364535	          1.24433613	          0.52914524	         -0.50199759	          1.42424953	          0.63468844	         -0.13470438	          1.18692422	          0.57298863	         -0.43871480	          1.44114709	          0.54864091	         -0.14292632	          1.18828213	          0.48504284	         -0.43704742	          1.36830091	          0.13545075	         -0.08956850	          1.02960491	          0.18051510	         -0.38291800	          1.36587942	          0.14647369	         -0.13141863	          1.00200927	          0.21316977	         -0.39181349	          1.47048175	          0.03955402	         -0.16917072	          0.86793870	          0.07613029	         -0.39656487	
